A man's life, thoughts, feelings and his very own darkness... Adapted from Dostoevsky's novel "Notes from Undergroud", Demirkubuz follows Muharrem as he gets himself invited to a party where he is not welcome, just to find himself disgusted. Written by esec

General 
Unique ID : 125841920076862725987637466208440576133 (0x5EAC45AFC90C761025F61EE276166885) 
Complete name : Yeralti.2012.DVDRip.x264.mkv 
Format : Matroska 
Format version : Version 2 
File size : 1.72 GiB 
Duration : 1h 45mn 
Overall bit rate : 2 330 Kbps 
Writing application : HandBrake 0.9.8 
Writing library : libmkv 0.6.5 

Video 
ID : 1 
Format : AVC 
Format/Info : Advanced Video Codec 
Format profile : High@L3.1 
Format settings, CABAC : Yes 
Format settings, ReFrames : 11 frames 
Codec ID : V_MPEG4/ISO/AVC 
Duration : 1h 45mn 
Bit rate : 1 836 Kbps 
Width : 720 pixels 
Height : 434 pixels 
Display aspect ratio : 2.35:1 
Original display aspect ratio : 2.35:1 
Frame rate : 25.000 fps 
Color space : YUV 
Chroma subsampling : 4:2:0 
Bit depth : 8 bits 
Scan type : Progressive 
Bits/(Pixel*Frame) : 0.235 
Stream size : 1.36 GiB (79%) 
Writing library : x264 core 120 
Encoding settings : cabac=1 / ref=11 / deblock=1:-3:-3 / analyse=0x3:0x133 / me=umh / subme=11 / psy=1 / psy_rd=1.10:0.00 / mixed_ref=1 / me_range=32 / chroma_me=1 / trellis=2 / 8x8dct=1 / cqm=0 / deadzone=21,11 / fast_pskip=0 / chroma_qp_offset=-2 / threads=4 / sliced_threads=0 / nr=0 / decimate=1 / interlaced=0 / bluray_compat=0 / constrained_intra=0 / bframes=9 / b_pyramid=2 / b_adapt=2 / b_bias=0 / direct=3 / weightb=1 / open_gop=0 / weightp=2 / keyint=250 / keyint_min=25 / scenecut=40 / intra_refresh=0 / rc_lookahead=60 / rc=crf / mbtree=1 / crf=13.8 / qcomp=0.60 / qpmin=3 / qpmax=69 / qpstep=4 / ip_ratio=1.40 / aq=2:1.10 
Language : English 
Default : Yes 
Forced : No 
Color primaries : BT.601-6 525, BT.1358 525, BT.1700 NTSC, SMPTE 170M 
Transfer characteristics : BT.709-5, BT.1361 
Matrix coefficients : BT.601-6 525, BT.1358 525, BT.1700 NTSC, SMPTE 170M 

Audio 
ID : 2 
Format : AC-3 
Format/Info : Audio Coding 3 
Mode extension : CM (complete main) 
Format settings, Endianness : Big 
Codec ID : A_AC3 
Duration : 1h 45mn 
Bit rate mode : Constant 
Bit rate : 448 Kbps 
Channel(s) : 6 channels 
Channel positions : Front: L C R, Side: L R, LFE 
Sampling rate : 48.0 KHz 
Bit depth : 16 bits 
Compression mode : Lossy 
Stream size : 339 MiB (19%) 
Language : Turkish 
Default : Yes 
Forced : No 

Text #1 
ID : 3 
Format : VobSub 
Codec ID : S_VOBSUB 
Codec ID/Info : The same subtitle format used on DVDs 
Language : Turkish 
Default : No 
Forced : No 

Text #2 
ID : 4 
Format : VobSub 
Codec ID : S_VOBSUB 
Codec ID/Info : The same subtitle format used on DVDs 
Language : English 
Default : No 
Forced : No 

Menu 
00:00:00.000 : Chapter 1 
00:11:40.840 : Chapter 2 
00:14:34.160 : Chapter 3 
00:25:09.800 : Chapter 4 
00:31:01.880 : Chapter 5 
00:40:55.720 : Chapter 6 
00:43:32.000 : Chapter 7 
01:02:21.640 : Chapter 8 
01:20:00.240 : Chapter 9 
01:26:11.240 : Chapter 10 
01:30:55.880 : Chapter 11 
01:43:39.720 : Chapter 12 

My rip.